<svg
  viewBox="0 0 24 24"
  fill="none"
  xmlns="http://www.w3.org/2000/svg"
  className="mr-2 h-6 w-6"
>
  <!-- Original Square Box Frame -->
  <path
    d="M0 6C0 2.68629 2.68629 0 6 0H18C21.3137 0 24 2.68629 24 6V18C24 21.3137 21.3137 24 18 24H6C2.68629 24 0 21.3137 0 18V6Z"
    fill="#4DA2FF"
  />
  
  <!-- Cybertech Heart Outline -->
  <path
    d="M12 6.5C10.5 4.2 7.2 4.2 5.5 6.2C3.2 8.8 4.5 13.2 12 18.5C19.5 13.2 20.8 8.8 18.5 6.2C16.8 4.2 13.5 4.2 12 6.5Z"
    stroke="white"
    stroke-width="1.5"
    stroke-linejoin="round"
    stroke-linecap="round"
  />
  
  <!-- Agent Visor / Glasses -->
  <polygon
    points="6.5,8.5 17.5,8.5 16,11 12,12 8,11"
    fill="white"
  />
  
  <!-- Blockchain Network Lines -->
  <path
    d="M12 12V14.5M12 14.5L9.5 13.5M12 14.5L14.5 13.5M12 14.5V17"
    stroke="white"
    stroke-width="1.2"
    stroke-linecap="round"
  />
  
  <!-- Blockchain Nodes (Data Points) -->
  <circle cx="12" cy="14.5" r="1" fill="white" />
  <circle cx="9.5" cy="13.5" r="0.8" fill="white" />
  <circle cx="14.5" cy="13.5" r="0.8" fill="white" />
  <circle cx="12" cy="17" r="0.8" fill="white" />
</svg>
